<svg xmlns="http://www.w3.org/2000/svg" viewBox="0 0 512 512">
  <defs>
    <linearGradient id="g" x1="0" y1="0" x2="0" y2="1">
      <stop offset="0%" stop-color="#ffe600"/>
      <stop offset="35%" stop-color="#ff6a00"/>
      <stop offset="70%" stop-color="#ff2e93"/>
      <stop offset="100%" stop-color="#6a00ff"/>
    </linearGradient>
    <linearGradient id="g2" x1="0" y1="0" x2="0" y2="1">
      <stop offset="0%" stop-color="#00d4ff"/>
      <stop offset="60%" stop-color="#0096b8"/>
      <stop offset="100%" stop-color="#ff2e93"/>
    </linearGradient>
  </defs>
  <rect width="512" height="512" fill="#ffe8f4"/>
  <g transform="translate(0 0)">
    <circle cx="64" cy="64" r="6" fill="#ffd1ea"/>
    <circle cx="128" cy="64" r="6" fill="#ffd1ea"/>
    <circle cx="192" cy="64" r="6" fill="#ffd1ea"/>
    <circle cx="256" cy="64" r="6" fill="#ffd1ea"/>
    <circle cx="320" cy="64" r="6" fill="#ffd1ea"/>
    <circle cx="384" cy="64" r="6" fill="#ffd1ea"/>
    <circle cx="448" cy="64" r="6" fill="#ffd1ea"/>
  </g>
  <g transform="translate(60 110) skewX(-6)">
    <text x="0" y="180" font-family="Comic Sans MS, Comic Sans, sans-serif" font-weight="900" font-size="220"
          fill="url(#g)" stroke="#1a0033" stroke-width="8" paint-order="stroke fill">M</text>
    <text x="180" y="180" font-family="Comic Sans MS, Comic Sans, sans-serif" font-weight="900" font-size="220"
          fill="url(#g2)" stroke="#1a0033" stroke-width="8" paint-order="stroke fill">s</text>
  </g>
  <g transform="translate(380 360)">
    <polygon points="0,-50 14,-15 50,-10 22,15 32,55 0,32 -32,55 -22,15 -50,-10 -14,-15"
             fill="#caff00" stroke="#1a0033" stroke-width="6"/>
  </g>
</svg>
